<?xml version="1.0" encoding="utf-8"?>
<!-- Generator: Adobe Illustrator 21.0.2, SVG Export Plug-In . SVG Version: 6.00 Build 0)  -->
<svg version="1.1" id="Layer_1" xmlns="http://www.w3.org/2000/svg" xmlns:xlink="http://www.w3.org/1999/xlink" x="0px" y="0px"
	 viewBox="0 0 256 256" style="enable-background:new 0 0 256 256;" xml:space="preserve">
<style type="text/css">
	.st0{fill:#E8E6F4;}
	.st1{fill:#94D3CC;}
	.st2{fill:#EB6B69;}
	.st3{fill:#8D386D;}
	.st4{fill:#8479B9;}
	.st5{fill:#44294F;}
	.st6{fill:#FFDDBE;}
	.st7{fill:#FCC800;}
	.st8{fill:#424242;}
	.st9{fill:#E8E6F5;}
</style>
<g>
	<g>
		<g>
			<path class="st0" d="M157.96,153.653c-6.01-6.01-13.18-10.86-21.15-14.17c-2.17,1.1-4.42,2.07-6.74,2.88
				c-0.66,0.24-1.32,0.46-1.99,0.67c-0.09,0.03-0.18,0.06-0.27,0.08c-0.71,0.22-1.43,0.42-2.15,0.61c-0.34,0.09-0.67,0.17-1.01,0.25
				c-0.41,0.11-0.83,0.2-1.25,0.29c-0.32,0.08-0.66,0.14-0.99,0.21c-0.02,0-0.03,0.01-0.05,0.01c-0.09,0.02-0.18,0.03-0.28,0.05
				l-0.89,0.17l-0.07,0.01c-0.36,0.06-0.71,0.12-1.07,0.17c-0.28,0.05-0.56,0.09-0.84,0.12c-0.14,0.02-0.29,0.04-0.43,0.06
				c-0.25,0.03-0.5,0.06-0.76,0.09c-0.53,0.07-1.07,0.12-1.61,0.16c-0.39,0.04-0.78,0.07-1.18,0.09c-0.36,0.03-0.72,0.05-1.09,0.06
				c-0.36,0.02-0.72,0.03-1.09,0.04c-0.47,0.01-0.95,0.02-1.43,0.02c-0.48,0-0.96-0.01-1.43-0.02c-0.37-0.01-0.73-0.02-1.09-0.04
				c-0.37-0.01-0.73-0.03-1.09-0.06c-0.4-0.02-0.79-0.05-1.18-0.09c-0.54-0.04-1.08-0.09-1.61-0.16c-0.26-0.03-0.51-0.06-0.76-0.09
				c-0.14-0.02-0.29-0.04-0.43-0.06c-0.28-0.03-0.56-0.07-0.84-0.12c-0.36-0.05-0.71-0.11-1.07-0.17c-0.02,0-0.05-0.01-0.07-0.01
				c-0.3-0.06-0.59-0.11-0.89-0.17c-0.1-0.02-0.19-0.03-0.28-0.05c-0.02,0-0.03-0.01-0.05-0.01c-0.33-0.07-0.67-0.13-0.99-0.21
				c-0.42-0.09-0.84-0.18-1.25-0.29c-0.34-0.08-0.67-0.16-1.01-0.25c-0.72-0.18-1.44-0.39-2.15-0.61c-0.09-0.02-0.18-0.05-0.27-0.08
				c-0.34-0.1-0.67-0.22-1-0.33c-0.33-0.11-0.66-0.23-0.99-0.34c-2.32-0.81-4.57-1.78-6.74-2.88
				c-23.69,9.87-40.34,33.25-40.34,60.51v21.18h131.06v-21.18C177.15,181.893,169.82,165.513,157.96,153.653z"/>
		</g>
	</g>
	<g>
		<g>
			<path class="st1" d="M157.96,153.653c-6.01-6.01-13.18-10.86-21.15-14.17c-2.17,1.1-4.42,2.07-6.74,2.88
				c-0.66,0.24-1.32,0.46-1.99,0.67c-0.09,0.03-0.18,0.06-0.27,0.08c-0.71,0.22-1.43,0.42-2.15,0.61c-0.34,0.09-0.67,0.17-1.01,0.25
				c-0.41,0.11-0.83,0.2-1.25,0.29c-0.32,0.08-0.66,0.14-0.99,0.21c-0.02,0-0.03,0.01-0.05,0.01c-0.09,0.02-0.18,0.03-0.28,0.05
				l-0.89,0.17l-0.07,0.01c-0.36,0.06-0.71,0.12-1.07,0.17c-0.28,0.05-0.56,0.09-0.84,0.12c-0.14,0.02-0.29,0.04-0.43,0.06
				c-0.25,0.03-0.5,0.06-0.76,0.09c-0.53,0.07-1.07,0.12-1.61,0.16c-0.39,0.04-0.78,0.07-1.18,0.09c-0.36,0.03-0.72,0.05-1.09,0.06
				c-0.36,0.02-0.72,0.03-1.09,0.04c-0.47,0.01-0.95,0.02-1.43,0.02c-0.48,0-0.96-0.01-1.43-0.02c-0.37-0.01-0.73-0.02-1.09-0.04
				c-0.37-0.01-0.73-0.03-1.09-0.06c-0.4-0.02-0.79-0.05-1.18-0.09c-0.54-0.04-1.08-0.09-1.61-0.16c-0.26-0.03-0.51-0.06-0.76-0.09
				c-0.14-0.02-0.29-0.04-0.43-0.06c-0.28-0.03-0.56-0.07-0.84-0.12c-0.36-0.05-0.71-0.11-1.07-0.17c-0.02,0-0.05-0.01-0.07-0.01
				c-0.3-0.06-0.59-0.11-0.89-0.17c-0.1-0.02-0.19-0.03-0.28-0.05c-0.02,0-0.03-0.01-0.05-0.01c-0.33-0.07-0.67-0.13-0.99-0.21
				c-0.42-0.09-0.84-0.18-1.25-0.29c-0.34-0.08-0.67-0.16-1.01-0.25c-0.72-0.18-1.44-0.39-2.15-0.61c-0.09-0.02-0.18-0.05-0.27-0.08
				c-0.34-0.1-0.67-0.22-1-0.33c-0.33-0.11-0.66-0.23-0.99-0.34c-2.32-0.81-4.57-1.78-6.74-2.88
				c-6.243,2.601-11.991,6.149-17.081,10.45c-9.921,11.485-15.926,26.446-15.926,42.81v21.18H177.15v-13.93
				C177.15,181.893,169.82,165.513,157.96,153.653z"/>
		</g>
	</g>
	<g>
		<g>
			<circle class="st0" cx="111.62" cy="90.173" r="55.346"/>
		</g>
	</g>
	<g>
		<g>
			<path class="st6" d="M111.62,34.827c-13.302,0-25.505,4.696-35.05,12.517c-8.085,9.621-12.963,22.029-12.963,35.58
				c0,30.567,24.779,55.346,55.346,55.346c13.302,0,25.505-4.696,35.05-12.516c8.085-9.621,12.963-22.029,12.963-35.58
				C166.966,59.606,142.187,34.827,111.62,34.827z"/>
		</g>
	</g>
	<g>
		<g>
			<path class="st0" d="M111.62,34.827c-22.824,0-42.415,13.819-50.879,33.543h12.171c15.389,0,27.865-12.475,27.865-27.865v-1.332
				c0,16.125,13.072,29.197,29.197,29.197h32.273v-0.559C153.653,48.387,134.226,34.827,111.62,34.827z"/>
		</g>
	</g>
	<g>
		<g>
			<path class="st4" d="M76.542,47.375c-3.453,4.116-6.32,8.739-8.468,13.745h12.171c5.768,0,11.127-1.753,15.573-4.755
				c3.123-4.502,4.958-9.966,4.958-15.86v-1.332c0,3.711,0.7,7.257,1.962,10.522c3.062-4.182,4.985-9.249,5.315-14.747
				C96.127,35.708,85.231,40.243,76.542,47.375z"/>
		</g>
	</g>
	<g>
		<g>
			<path class="st4" d="M111.62,34.827c-1.128,0-2.245,0.043-3.356,0.11c1.508,14.709,13.935,26.183,29.042,26.183h21.407
				C148.964,45.345,131.526,34.827,111.62,34.827z"/>
		</g>
	</g>
	<g>
		<g>
			<path class="st0" d="M128.08,143.033c-0.09,0.03-0.18,0.06-0.27,0.08c-0.71,0.22-1.43,0.42-2.15,0.61
				c-0.34,0.09-0.67,0.17-1.01,0.25c-0.41,0.11-0.83,0.2-1.25,0.29c-0.32,0.08-0.66,0.14-0.99,0.21c-0.02,0-0.03,0.01-0.05,0.01
				c-0.09,0.02-0.18,0.03-0.28,0.05l-0.89,0.17l-0.07,0.01c-0.36,0.06-0.71,0.12-1.07,0.17c-0.28,0.04-0.56,0.09-0.84,0.12
				c-0.14,0.02-0.29,0.04-0.43,0.06c-0.25,0.03-0.5,0.06-0.76,0.09c-0.53,0.07-1.07,0.12-1.61,0.16c-0.39,0.04-0.78,0.07-1.18,0.09
				c-0.36,0.03-0.72,0.05-1.09,0.06c-0.36,0.02-0.72,0.03-1.09,0.04c-0.47,0.01-0.95,0.02-1.43,0.02c-0.48,0-0.96-0.01-1.43-0.02
				c-0.37-0.01-0.73-0.02-1.09-0.04c-0.37-0.01-0.73-0.03-1.09-0.06c-0.4-0.02-0.79-0.05-1.18-0.09c-0.54-0.04-1.08-0.09-1.61-0.16
				c-0.26-0.03-0.51-0.06-0.76-0.09c-0.14-0.02-0.29-0.04-0.43-0.06c-0.28-0.03-0.56-0.08-0.84-0.12c-0.36-0.05-0.71-0.11-1.07-0.17
				c-0.02,0-0.05-0.01-0.07-0.01c-0.3-0.06-0.59-0.11-0.89-0.17c-0.1-0.02-0.19-0.03-0.28-0.05c-0.02,0-0.03-0.01-0.05-0.01
				c-0.33-0.07-0.67-0.13-0.99-0.21c-0.42-0.09-0.84-0.18-1.25-0.29c-0.34-0.08-0.67-0.16-1.01-0.25c-0.72-0.18-1.44-0.39-2.15-0.61
				c-0.09-0.02-0.18-0.05-0.27-0.08c-0.34-0.1-0.67-0.22-1-0.33c-0.33-0.11-0.66-0.23-0.99-0.34l18.47,68.24l18.43-68.24
				C129.41,142.603,128.75,142.823,128.08,143.033z"/>
		</g>
	</g>
	<g>
		<g>
			<path class="st2" d="M128.08,143.033c-0.09,0.03-0.18,0.06-0.27,0.08c-0.71,0.22-1.43,0.42-2.15,0.61
				c-0.34,0.09-0.67,0.17-1.01,0.25c-0.41,0.11-0.83,0.2-1.25,0.29c-0.32,0.08-0.66,0.14-0.99,0.21c-0.02,0-0.03,0.01-0.05,0.01
				c-0.09,0.02-0.18,0.03-0.28,0.05l-0.89,0.17l-0.07,0.01c-0.36,0.06-0.71,0.12-1.07,0.17c-0.28,0.04-0.56,0.09-0.84,0.12
				c-0.14,0.02-0.29,0.04-0.43,0.06c-0.25,0.03-0.5,0.06-0.76,0.09c-0.53,0.07-1.07,0.12-1.61,0.16c-0.39,0.04-0.78,0.07-1.18,0.09
				c-0.36,0.03-0.72,0.05-1.09,0.06c-0.36,0.02-0.72,0.03-1.09,0.04c-0.47,0.01-0.95,0.02-1.43,0.02c-0.48,0-0.96-0.01-1.43-0.02
				c-0.37-0.01-0.73-0.02-1.09-0.04c-0.37-0.01-0.73-0.03-1.09-0.06c-0.4-0.02-0.79-0.05-1.18-0.09c-0.54-0.04-1.08-0.09-1.61-0.16
				c-0.26-0.03-0.51-0.06-0.76-0.09c-0.14-0.02-0.29-0.04-0.43-0.06c-0.28-0.03-0.56-0.08-0.84-0.12
				c-0.015-0.002-0.029-0.005-0.044-0.007l13.137,48.536l13.787-51.049C129.41,142.603,128.75,142.823,128.08,143.033z"/>
		</g>
	</g>
	<g>
		<g>
			<circle class="st0" cx="198.989" cy="145.135" r="10.922"/>
		</g>
	</g>
	<g>
		<g>
			<path class="st7" d="M198.989,134.213c-1.08,0-2.12,0.163-3.105,0.454c-0.313,1.017-0.483,2.097-0.483,3.217
				c0,6.032,4.89,10.922,10.922,10.922c1.08,0,2.12-0.163,3.105-0.454c0.313-1.017,0.483-2.097,0.483-3.218
				C209.91,139.103,205.02,134.213,198.989,134.213z"/>
		</g>
	</g>
	<g>
		<g>
			<circle class="st5" cx="89.734" cy="90.256" r="5.77"/>
		</g>
	</g>
	<g>
		<g>
			<circle class="st5" cx="133.463" cy="90.213" r="5.77"/>
		</g>
	</g>
	<g>
		<g>
			<path class="st5" d="M119.747,110.827c-1.523,3.144-4.637,5.097-8.127,5.097s-6.604-1.953-8.127-5.097l-5.399,2.615
				c2.496,5.152,7.805,8.481,13.526,8.481s11.031-3.329,13.526-8.481L119.747,110.827z"/>
		</g>
	</g>
	<g>
		<g>
			<path class="st5" d="M160.081,151.533c-2.425-2.426-5.003-4.646-7.72-6.66c16.604-12.408,27.415-32.181,27.508-54.413
				l0.013-3.013h-9.984c-0.331-7.158-1.957-13.981-4.65-20.244v-0.026l-0.256-0.58c-0.23-0.52-0.472-1.031-0.716-1.541
				c-0.031-0.064-0.059-0.13-0.09-0.194c-4.554-9.447-11.472-17.297-19.849-22.974c-0.076-0.052-0.153-0.104-0.229-0.156
				c-0.713-0.478-1.434-0.944-2.168-1.391c-0.038-0.023-0.074-0.047-0.112-0.07c-0.719-0.436-1.448-0.854-2.186-1.258
				c-0.257-0.141-0.517-0.275-0.776-0.413c-0.46-0.243-0.922-0.481-1.388-0.712c-0.342-0.17-0.684-0.338-1.03-0.501
				c-0.4-0.189-0.805-0.368-1.209-0.548c-0.691-0.307-1.389-0.6-2.094-0.881c-0.316-0.125-0.63-0.254-0.947-0.374
				c-0.464-0.176-0.933-0.342-1.403-0.506c-0.295-0.103-0.591-0.203-0.888-0.301c-0.483-0.16-0.966-0.318-1.454-0.465
				c-0.251-0.076-0.505-0.143-0.758-0.216c-0.863-0.248-1.733-0.476-2.612-0.685c-0.359-0.085-0.717-0.171-1.078-0.25
				c-0.438-0.095-0.877-0.184-1.318-0.269c-0.444-0.086-0.889-0.164-1.336-0.239c-0.374-0.063-0.746-0.131-1.122-0.187
				c-0.787-0.117-1.579-0.217-2.373-0.302c-0.291-0.031-0.584-0.054-0.877-0.081c-0.619-0.057-1.24-0.105-1.864-0.142
				c-0.279-0.017-0.557-0.034-0.837-0.046c-0.882-0.04-1.766-0.067-2.654-0.067c-0.896,0-1.787,0.027-2.676,0.068
				c-0.265,0.012-0.53,0.029-0.794,0.044c-0.664,0.039-1.325,0.09-1.983,0.151c-0.248,0.023-0.497,0.043-0.744,0.069
				c-0.856,0.091-1.709,0.198-2.556,0.326c-0.184,0.028-0.366,0.062-0.55,0.092c-0.689,0.111-1.375,0.233-2.057,0.368
				c-0.262,0.052-0.523,0.106-0.783,0.161c-0.699,0.148-1.394,0.309-2.085,0.482c-0.147,0.037-0.296,0.07-0.443,0.108
				c-0.872,0.226-1.736,0.473-2.593,0.738c-0.075,0.023-0.15,0.049-0.225,0.073c-0.82,0.257-1.632,0.534-2.438,0.826
				c-0.067,0.025-0.134,0.049-0.201,0.073c-14.792,5.432-27.053,16.738-33.508,31.78l-1.795,4.183H56.4
				c-1.736,5.084-2.799,10.477-3.057,16.078h-9.984l0.013,3.013c0.092,22.23,10.903,42.001,27.504,54.41
				C53.622,157.593,43.09,177.86,43.09,199.994v24.18h137.06v-24.18C180.15,181.684,173.022,164.473,160.081,151.533z
				 M169.869,93.448h3.915c-0.087,1.66-0.256,3.298-0.471,4.922h-3.933C169.608,96.749,169.776,95.108,169.869,93.448z
				 M168.211,104.37h4.003c-3.569,15.201-12.728,28.276-25.178,36.935c-1.245-0.751-2.521-1.452-3.814-2.123
				C155.464,131.26,164.567,118.891,168.211,104.37z M93.762,156.035l10.856,40.108L90.08,176.594l0-9.409l-16.644-16.732
				c0.894-0.688,1.804-1.357,2.738-1.998C81.59,151.765,87.501,154.331,93.762,156.035z M82.023,144.896
				c1.406-0.753,2.845-1.46,4.321-2.112c1.422,0.679,2.87,1.278,4.329,1.835l1.241,4.586
				C88.474,148.052,85.168,146.607,82.023,144.896z M97.48,146.793c0.12,0.03,0.23,0.05,0.33,0.08c0.46,0.12,0.93,0.22,1.34,0.31
				c0.38,0.09,0.76,0.17,1.07,0.23c0.1,0.02,0.21,0.04,0.39,0.07l0.102,0.019l1.039,0.201l0.121,0.01
				c0.284,0.047,0.564,0.094,0.85,0.134c0.329,0.057,0.652,0.103,0.893,0.127l0.143,0.018c0.116,0.016,0.225,0.036,0.342,0.051
				l0.73,0.09c0.346,0.041,0.686,0.076,1.016,0.106c0.234,0.022,0.466,0.042,0.677,0.058c0.44,0.045,0.881,0.079,1.243,0.097
				c0.415,0.033,0.829,0.057,1.171,0.064c0.364,0.02,0.732,0.031,1.119,0.041c0.025,0.001,0.048,0.003,0.074,0.004
				c0.271,0.005,0.556-0.002,0.831,0c0.221,0.002,0.438,0.017,0.659,0.017s0.439-0.014,0.659-0.017c0.286-0.002,0.562,0.006,0.851,0
				c0.085-0.002,0.168-0.006,0.252-0.009c0.15-0.004,0.294-0.009,0.433-0.015c0.27-0.009,0.533-0.021,0.793-0.034
				c0.183-0.008,0.352-0.018,0.514-0.029c0.084-0.005,0.176-0.009,0.258-0.014c0.202-0.013,0.397-0.027,0.586-0.041
				c0.239-0.018,0.467-0.037,0.666-0.058c0.25-0.019,0.498-0.041,0.744-0.064c0.34-0.032,0.675-0.068,0.995-0.108l0.79-0.09
				c0.439-0.058,0.876-0.123,1.317-0.19c0.014-0.002,0.027-0.003,0.041-0.006c0.305-0.043,0.605-0.093,0.909-0.144l0.057-0.011
				c0.063-0.01,0.123-0.019,0.186-0.03l1.03-0.19c0.11-0.02,0.22-0.04,0.24-0.05c0.306-0.055,0.598-0.117,0.867-0.179
				c0.089-0.02,0.18-0.036,0.266-0.057c0.391-0.084,0.768-0.168,1.096-0.252c0.055-0.014,0.12-0.028,0.171-0.042
				c0.14-0.03,0.28-0.07,0.43-0.1l-1.148,4.25c-4.198,0.898-8.544,1.386-13.002,1.386c-4.453,0-8.795-0.486-12.989-1.383
				L97.48,146.793z M100.373,157.482c3.662,0.612,7.416,0.947,11.247,0.947c3.837,0,7.596-0.336,11.263-0.95l-11.243,41.624
				L100.373,157.482z M129.486,156.032c6.255-1.704,12.162-4.267,17.573-7.574c0.925,0.638,1.829,1.308,2.721,1.997l-16.641,16.73
				v9.41l-14.472,19.492L129.486,156.032z M131.331,149.205l1.238-4.584c1.451-0.554,2.899-1.154,4.329-1.837
				c1.47,0.648,2.902,1.363,4.31,2.118C138.066,146.609,134.765,148.052,131.331,149.205z M103.776,38.434
				c0.367-0.056,0.735-0.111,1.104-0.158c0.344-0.044,0.686-0.094,1.031-0.131c0.649-0.071,1.303-0.121,1.958-0.168
				c0.294-0.021,0.587-0.051,0.882-0.067c0.951-0.052,1.907-0.082,2.868-0.082c0.793,0,1.58,0.025,2.365,0.06
				c0.225,0.01,0.449,0.022,0.673,0.035c0.658,0.038,1.312,0.088,1.963,0.15c0.208,0.02,0.417,0.04,0.625,0.062
				c0.635,0.068,1.266,0.151,1.894,0.241c0.325,0.047,0.649,0.098,0.972,0.151c0.428,0.07,0.854,0.148,1.279,0.229
				c0.546,0.104,1.089,0.216,1.629,0.337c0.385,0.086,0.769,0.172,1.151,0.266c0.405,0.1,0.807,0.207,1.208,0.316
				c0.29,0.079,0.578,0.163,0.866,0.247c0.701,0.204,1.396,0.424,2.086,0.657c0.267,0.09,0.536,0.177,0.801,0.271
				c0.397,0.141,0.791,0.291,1.184,0.442c0.294,0.113,0.587,0.229,0.879,0.347c0.364,0.147,0.729,0.293,1.09,0.449
				c0.576,0.249,1.147,0.507,1.712,0.775c0.282,0.133,0.559,0.274,0.838,0.412c0.426,0.212,0.85,0.428,1.27,0.651
				c0.222,0.118,0.445,0.234,0.665,0.355c0.643,0.354,1.28,0.718,1.906,1.097c0.075,0.045,0.148,0.093,0.223,0.139
				c0.631,0.387,1.254,0.785,1.867,1.198c0.055,0.037,0.111,0.074,0.166,0.111c6.973,4.73,12.748,11.097,16.772,18.544h-27.731
				c-14.445,0-26.197-11.752-26.197-26.196V38.434z M88.876,43.032c0.059-0.029,0.119-0.056,0.178-0.085
				c0.669-0.321,1.348-0.627,2.032-0.92c0.164-0.07,0.33-0.137,0.495-0.206c0.594-0.247,1.193-0.485,1.798-0.71
				c0.261-0.097,0.525-0.189,0.788-0.282c0.526-0.187,1.053-0.368,1.586-0.538c0.343-0.109,0.689-0.21,1.035-0.312
				c0.328-0.097,0.657-0.19,0.987-0.281v0.807c0,13.71-11.154,24.864-24.865,24.864h-7.376C70.764,55.693,78.95,47.84,88.876,43.032
				z M62.78,71.37h10.131c12.477,0,23.248-7.441,28.108-18.118c5.233,10.718,16.245,18.118,28.953,18.118h30.486
				c2.256,5.84,3.507,12.177,3.507,18.804c0,26.078-19.17,47.758-44.157,51.702c-0.174,0.027-0.348,0.053-0.523,0.078
				c-1.565,0.231-3.152,0.394-4.759,0.482c-0.197,0.01-0.39,0.018-0.586,0.026c-0.718,0.031-1.439,0.053-2.164,0.055
				c-0.105,0-0.207,0-0.312,0c-0.8-0.002-1.595-0.022-2.386-0.061c-0.128-0.006-0.26-0.015-0.391-0.022
				c-0.734-0.041-1.463-0.096-2.189-0.167c-0.131-0.012-0.266-0.025-0.4-0.039c-26.279-2.767-46.827-25.054-46.827-52.054
				C59.273,83.547,60.524,77.21,62.78,71.37z M49.456,93.448h3.915c0.092,1.661,0.261,3.301,0.49,4.922h-3.933
				C49.712,96.746,49.543,95.108,49.456,93.448z M51.025,104.37h4.003c3.644,14.52,12.745,26.887,24.985,34.809
				c-1.297,0.673-2.57,1.378-3.812,2.125C63.752,132.645,54.594,119.57,51.025,104.37z M174.15,218.173H49.09v-18.18
				c0-17.679,7.363-34.053,19.756-45.648l15.233,15.316l0,8.919l24.817,33.368l0.123,0.455h5.24l0.134-0.497l24.745-33.327v-8.918
				l15.219-15.301c0.497,0.466,0.996,0.93,1.48,1.415c11.808,11.808,18.312,27.512,18.312,44.219V218.173z"/>
		</g>
	</g>
	<g>
		<g>
			<path class="st5" d="M69.244,159.573c-2.105,2.205-4.051,4.593-5.782,7.097l4.935,3.412c1.554-2.245,3.299-4.388,5.188-6.366
				L69.244,159.573z"/>
		</g>
	</g>
	<g>
		<g>
			<path class="st5" d="M59.845,172.63c-4.419,8.375-6.755,17.837-6.755,27.363v11.18h6v-11.18c0-8.555,2.096-17.048,6.062-24.562
				L59.845,172.63z"/>
		</g>
	</g>
	<g>
		<g>
			<path class="st5" d="M198.988,131.213c-7.676,0-13.921,6.245-13.921,13.922s6.245,13.922,13.921,13.922
				c7.677,0,13.922-6.245,13.922-13.922S206.665,131.213,198.988,131.213z M198.988,153.057c-4.368,0-7.921-3.554-7.921-7.922
				s3.554-7.922,7.921-7.922c4.368,0,7.922,3.554,7.922,7.922S203.356,153.057,198.988,153.057z"/>
		</g>
	</g>
	<g>
		<g>
			<circle class="st5" cx="198.989" cy="145.135" r="3.121"/>
		</g>
	</g>
	<g>
		<g>
			<path class="st3" d="M198.988,159.057c-1.029,0-2.029-0.12-2.995-0.333v8.176c0,22.436-18.252,40.688-40.687,40.688
				S114.62,189.335,114.62,166.9v-8.547c-0.996,0.043-1.994,0.076-3,0.076s-2.004-0.033-3-0.076v8.547
				c0,25.743,20.944,46.688,46.687,46.688s46.687-20.944,46.687-46.688v-8.178C201.024,158.936,200.021,159.057,198.988,159.057z"/>
		</g>
	</g>
</g>
</svg>
