<?xml version="1.0" encoding="utf-8"?>
<!-- Generator: Adobe Illustrator 21.0.2, SVG Export Plug-In . SVG Version: 6.00 Build 0)  -->
<svg version="1.1" id="Layer_1" xmlns="http://www.w3.org/2000/svg" xmlns:xlink="http://www.w3.org/1999/xlink" x="0px" y="0px"
	 viewBox="0 0 256 256" style="enable-background:new 0 0 256 256;" xml:space="preserve">
<style type="text/css">
	.st0{fill:#E8E6F4;}
	.st1{fill:#94D3CC;}
	.st2{fill:#EB6B69;}
	.st3{fill:#8D386D;}
	.st4{fill:#8479B9;}
	.st5{fill:#44294F;}
	.st6{fill:#FFDDBE;}
	.st7{fill:#FCC800;}
	.st8{fill:#424242;}
	.st9{fill:#E8E6F5;}
</style>
<g>
	<g>
		<g>
			<rect x="50.555" y="56.517" class="st9" width="119.2" height="154.521"/>
		</g>
	</g>
	<g>
		<g>
			<rect x="58.536" y="56.517" class="st1" width="111.219" height="146.541"/>
		</g>
	</g>
	<g>
		<g>
			<path class="st9" d="M144.981,44.631h-27.795c-0.601,0-1.088-0.487-1.088-1.088v-4.855c0-3.282-2.661-5.943-5.943-5.943
				s-5.943,2.661-5.943,5.943v4.855c0,0.601-0.487,1.088-1.088,1.088H75.329c-0.601,0-1.088,0.487-1.088,1.088v21.596
				c0,0.601,0.487,1.088,1.088,1.088h69.652c0.601,0,1.088-0.487,1.088-1.088V45.719C146.07,45.118,145.582,44.631,144.981,44.631z"
				/>
		</g>
	</g>
	<g>
		<g>
			<path class="st4" d="M144.981,44.631h-27.795c-0.601,0-1.088-0.487-1.088-1.088v-4.855c0-2.565-1.628-4.744-3.905-5.577
				l-7.615,3.539c-0.233,0.636-0.366,1.321-0.366,2.038v4.855c0,0.601-0.487,1.088-1.088,1.088H82.222v14.703
				c0,0.601,0.487,1.088,1.088,1.088h62.76V45.719C146.07,45.118,145.582,44.631,144.981,44.631z"/>
		</g>
	</g>
	<g>
		<g>
			<path class="st2" d="M136.924,100.179h-14.34c-1.5,0-2.715-1.216-2.715-2.715v-14.34c0-1.5-1.216-2.715-2.715-2.715h-14.34
				c-1.5,0-2.715,1.216-2.715,2.715v14.34c0,1.5-1.216,2.715-2.715,2.715h-14.34c-1.5,0-2.715,1.216-2.715,2.715v14.34
				c0,1.5,1.216,2.715,2.715,2.715h14.34c1.5,0,2.715,1.216,2.715,2.715v14.34c0,1.5,1.216,2.715,2.715,2.715h14.34
				c1.5,0,2.715-1.216,2.715-2.715v-14.34c0-1.5,1.216-2.715,2.715-2.715h14.34c1.5,0,2.715-1.216,2.715-2.715v-14.34
				C139.639,101.395,138.424,100.179,136.924,100.179z"/>
		</g>
	</g>
	<g>
		<g>
			<path class="st9" d="M136.924,100.179h-14.34c-1.5,0-2.715-1.216-2.715-2.715v-14.34c0-1.5-1.216-2.715-2.715-2.715h-14.34
				c-1.5,0-2.715,1.216-2.715,2.715v14.34c0,1.5-1.216,2.715-2.715,2.715h-14.34c-1.5,0-2.715,1.216-2.715,2.715v14.34
				c0,1.5,1.216,2.715,2.715,2.715h14.34c1.5,0,2.715,1.216,2.715,2.715v14.34c0,1.5,1.216,2.715,2.715,2.715h14.34
				c1.5,0,2.715-1.216,2.715-2.715v-14.34c0-1.5,1.216-2.715,2.715-2.715h14.34c1.5,0,2.715-1.216,2.715-2.715v-14.34
				C139.639,101.395,138.424,100.179,136.924,100.179z"/>
		</g>
	</g>
	<g>
		<g>
			<path class="st2" d="M136.924,100.179h-14.34c-1.5,0-2.715-1.216-2.715-2.715v-14.34c0-1.5-1.216-2.715-2.715-2.715h-16.88
				l-0.176,11.79v5.266c0,1.5-1.216,2.715-2.715,2.715h-9.075v9.075c0,1.5,1.216,2.715,2.715,2.715h14.34
				c1.5,0,2.715,1.216,2.715,2.715v14.34c0,1.5,1.216,2.715,2.715,2.715h9.075v-9.075c0-1.5,1.216-2.715,2.715-2.715h5.266
				l11.79-0.178v-16.878C139.639,101.395,138.424,100.179,136.924,100.179z"/>
		</g>
	</g>
	<g>
		<g>
			<path class="st9" d="M169.592,127.75l-35.762,11.886v23.772c0,39.942,35.762,59.431,35.762,59.431s35.853-19.489,35.853-59.431
				v-23.772L169.592,127.75z"/>
		</g>
	</g>
	<g>
		<g>
			<path class="st3" d="M169.596,139.216l-24.883,8.271v15.922c0,24.554,16.238,39.949,24.888,46.408
				c8.671-6.455,24.962-21.852,24.962-46.408v-15.916L169.596,139.216z"/>
		</g>
	</g>
	<g>
		<g>
			<path class="st5" d="M136.925,97.179h-14.056V83.124c0-3.151-2.564-5.716-5.716-5.716h-14.34c-3.151,0-5.715,2.564-5.715,5.716
				v14.056H83.042c-3.151,0-5.715,2.563-5.715,5.715v14.341c0,3.151,2.564,5.715,5.715,5.715h14.056v14.056
				c0,3.151,2.564,5.716,5.715,5.716h14.34c3.151,0,5.716-2.564,5.716-5.716V122.95h14.056c3.151,0,5.715-2.563,5.715-5.715v-14.341
				C142.639,99.743,140.076,97.179,136.925,97.179z M136.639,116.95h-14.056c-3.151,0-5.715,2.564-5.715,5.716v14.056h-13.771
				v-14.056c0-3.151-2.564-5.716-5.715-5.716H83.326v-13.771h14.056c3.151,0,5.715-2.564,5.715-5.716V83.408h13.771v14.056
				c0,3.151,2.563,5.716,5.715,5.716h14.056V116.95z"/>
		</g>
	</g>
	<g>
		<g>
			<polygon class="st5" points="184.675,153.032 167.728,186.147 158.757,175.593 153.249,185.876 169.557,194.074 193.324,159.951 
							"/>
		</g>
	</g>
	<g>
		<g>
			<path class="st5" d="M172.756,125.638V53.517H149.07v-7.798c0-2.254-1.834-4.088-4.089-4.088h-25.883v-2.943
				c0-4.932-4.012-8.943-8.943-8.943c-4.931,0-8.943,4.012-8.943,8.943v2.943H75.329c-2.254,0-4.088,1.834-4.088,4.088v7.798H47.555
				v160.521H153.2c7.576,7.316,14.313,11.085,14.956,11.435l1.434,0.782l1.435-0.78c1.528-0.83,37.421-20.814,37.421-62.066V137.47
				L172.756,125.638z M77.24,47.631h25.883c2.254,0,4.088-1.834,4.088-4.089v-4.854c0-1.623,1.32-2.943,2.943-2.943
				c1.623,0,2.943,1.32,2.943,2.943v4.854c0,2.255,1.834,4.089,4.088,4.089h25.884v17.772H77.24V47.631z M53.555,208.039V59.517
				h6.055v20.804h6V59.517h5.63v7.798c0,2.255,1.834,4.089,4.088,4.089h69.652c2.255,0,4.089-1.834,4.089-4.089v-7.798h5.63v32.658
				h6V59.517h6.056v66.014l-35.926,11.941v16.83H62.61v6h68.22v3.106c0,3.027,0.213,5.925,0.571,8.724H62.61v6h69.822
				c0.943,4.236,2.262,8.175,3.839,11.829H62.61v6h76.597c2.524,4.569,5.414,8.585,8.369,12.077H53.555z M202.445,163.409
				c0,33.15-26.357,51.833-32.854,55.933c-6.496-4.093-32.761-22.705-32.761-55.933V141.8l32.763-10.89l32.853,10.892V163.409z"/>
		</g>
	</g>
	<g>
		<g>
			<rect x="154.7" y="103.992" class="st5" width="6" height="11.957"/>
		</g>
	</g>
	<g>
		<g>
			<rect x="59.61" y="92.176" class="st5" width="6" height="47.545"/>
		</g>
	</g>
</g>
</svg>
