<?xml version="1.0" encoding="utf-8"?>
<!-- Generator: Adobe Illustrator 21.0.2, SVG Export Plug-In . SVG Version: 6.00 Build 0)  -->
<svg version="1.1" id="Layer_1" xmlns="http://www.w3.org/2000/svg" xmlns:xlink="http://www.w3.org/1999/xlink" x="0px" y="0px"
	 viewBox="0 0 256 256" style="enable-background:new 0 0 256 256;" xml:space="preserve">
<style type="text/css">
	.st0{fill:#E8E6F4;}
	.st1{fill:#94D3CC;}
	.st2{fill:#EB6B69;}
	.st3{fill:#8D386D;}
	.st4{fill:#8479B9;}
	.st5{fill:#44294F;}
	.st6{fill:#FFDDBE;}
	.st7{fill:#FCC800;}
	.st8{fill:#424242;}
	.st9{fill:#E8E6F5;}
</style>
<g>
	<g>
		<g>
			<circle class="st2" cx="127.764" cy="151.606" r="70.223"/>
		</g>
	</g>
	<g>
		<g>
			<path class="st5" d="M127.764,109.619c-22.948,0-41.617,18.669-41.617,41.618s18.669,41.618,41.617,41.618
				s41.618-18.669,41.618-41.618S150.712,109.619,127.764,109.619z M127.764,180.854c-16.331,0-29.617-13.287-29.617-29.618
				s13.286-29.618,29.617-29.618s29.618,13.287,29.618,29.618S144.095,180.854,127.764,180.854z"/>
		</g>
	</g>
	<g>
		<g>
			<circle class="st5" cx="127.764" cy="151.237" r="18.193"/>
		</g>
	</g>
	<g>
		<g>
			<path class="st5" d="M127.764,90.087c-8.507,0-16.743,1.704-24.481,5.065c-6.738,2.925-12.85,7.002-18.166,12.116
				c-12.17,11.709-18.872,27.456-18.872,44.339c0,33.922,27.598,61.52,61.52,61.52s61.52-27.598,61.52-61.52
				S161.686,90.087,127.764,90.087z M127.764,207.126c-30.613,0-55.52-24.906-55.52-55.52c0-15.237,6.049-29.448,17.032-40.015
				c4.799-4.617,10.314-8.296,16.396-10.937c6.979-3.031,14.413-4.568,22.092-4.568c30.613,0,55.52,24.906,55.52,55.52
				S158.377,207.126,127.764,207.126z"/>
		</g>
	</g>
	<g>
		<g>
			<path class="st2" d="M138.004,52.793c-0.552-0.86-1.503-1.38-2.524-1.38h-9.724l5.111-13.156c0.6-1.544-0.166-3.283-1.711-3.883
				c-1.541-0.599-3.282,0.166-3.883,1.71l-6.698,17.242c-0.358,0.923-0.238,1.963,0.321,2.781c0.559,0.817,1.485,1.306,2.476,1.306
				h9.433l-5.954,12.992c-0.69,1.506-0.028,3.287,1.478,3.977c0.405,0.186,0.83,0.274,1.248,0.273c1.137,0,2.225-0.649,2.729-1.75
				l7.901-17.242C138.633,54.734,138.556,53.653,138.004,52.793z"/>
		</g>
	</g>
	<g>
		<g>
			<path class="st2" d="M202.765,59.336c-0.667-1.516-2.436-2.205-3.954-1.537l-16.929,7.455c-0.906,0.399-1.558,1.22-1.739,2.193
				c-0.183,0.973,0.127,1.974,0.827,2.674l6.67,6.67l-13.397,4.978c-1.553,0.577-2.345,2.304-1.768,3.857
				c0.449,1.208,1.595,1.956,2.812,1.956c0.348,0,0.7-0.061,1.045-0.189l17.779-6.605c0.958-0.355,1.668-1.174,1.886-2.172
				s-0.087-2.039-0.81-2.761l-6.875-6.876l12.916-5.688C202.745,62.622,203.433,60.852,202.765,59.336z"/>
		</g>
	</g>
	<g>
		<g>
			<path class="st2" d="M81.757,81.411L68.36,76.434l6.67-6.67c0.7-0.7,1.01-1.701,0.827-2.674
				c-0.182-0.973-0.833-1.794-1.739-2.193l-16.929-7.455c-1.518-0.668-3.287,0.021-3.954,1.537c-0.668,1.516,0.02,3.287,1.536,3.955
				l12.916,5.688l-6.875,6.876c-0.723,0.722-1.027,1.763-0.81,2.761s0.928,1.817,1.886,2.172l17.778,6.605
				c0.345,0.128,0.697,0.189,1.045,0.189c1.218,0,2.363-0.748,2.812-1.956C84.102,83.715,83.31,81.988,81.757,81.411z"/>
		</g>
	</g>
</g>
</svg>
