<?xml version="1.0" encoding="utf-8"?>
<!-- Generator: Adobe Illustrator 18.0.0, SVG Export Plug-In . SVG Version: 6.00 Build 0)  -->
<!DOCTYPE svg PUBLIC "-//W3C//DTD SVG 1.1//EN" "http://www.w3.org/Graphics/SVG/1.1/DTD/svg11.dtd">
<svg version="1.1" id="Icon_Set" xmlns="http://www.w3.org/2000/svg" xmlns:xlink="http://www.w3.org/1999/xlink" x="0px" y="0px"
	 viewBox="0 0 256 256" style="enable-background:new 0 0 256 256;" xml:space="preserve">
<style type="text/css">
	.st0{fill:#4C4372;}
	.st1{fill:#F1C48B;}
	.st2{fill:#FFFFFF;}
	.st3{fill:#A3D0F1;}
	.st4{fill:#7BACF1;}
	.st5{fill:#D4E7F8;}
	.st6{fill:#FD919E;}
	.st7{fill:#D3E6F7;}
	.st8{fill:#E8677D;}
	.st9{fill:#D3E6F8;}
</style>
<g>
	<g>
		<circle class="st1" cx="128" cy="128" r="104.245"/>
	</g>
	<g>
		<rect x="45.184" y="77.629" class="st3" width="148" height="100.742"/>
	</g>
	<g>
		<rect x="177.684" y="77.629" class="st4" width="15.5" height="100.742"/>
	</g>
	<g>
		<polygon class="st4" points="119.184,153.186 94.517,128 45.184,178.371 193.184,178.371 143.85,128 		"/>
	</g>
	<g>
		<polygon class="st7" points="45.184,77.629 119.184,153.186 193.184,77.629 		"/>
	</g>
	<g>
		<path class="st0" d="M193.184,181.371h-148c-1.657,0-3-1.343-3-3V77.629c0-1.657,1.343-3,3-3h148c1.657,0,3,1.343,3,3v100.742
			C196.184,180.028,194.84,181.371,193.184,181.371z M48.184,175.371h142V80.629h-142V175.371z"/>
	</g>
	<g>
		<path class="st0" d="M193.204,181.371c-0.007,0-0.013,0-0.02,0h-148c-1.208,0-2.298-0.724-2.766-1.837s-0.223-2.399,0.623-3.262
			l49.333-50.371c1.128-1.152,3.158-1.152,4.286,0l22.523,22.997l22.524-22.997c1.128-1.152,3.158-1.152,4.286,0l49.138,50.172
			c0.655,0.55,1.072,1.375,1.072,2.298C196.204,180.028,194.86,181.371,193.204,181.371z M52.321,175.371h133.726l-42.196-43.083
			l-22.524,22.997c-1.128,1.152-3.158,1.152-4.286,0l-22.523-22.997L52.321,175.371z"/>
	</g>
	<g>
		<path class="st0" d="M119.184,156.186c-0.807,0-1.579-0.325-2.143-0.901l-74-75.557c-0.845-0.863-1.09-2.148-0.623-3.262
			s1.558-1.837,2.766-1.837h148c1.208,0,2.298,0.724,2.766,1.837s0.223,2.399-0.623,3.262l-74,75.557
			C120.763,155.861,119.99,156.186,119.184,156.186z M52.321,80.629l66.863,68.269l66.863-68.269H52.321z"/>
	</g>
	<g>
		<polygon class="st6" points="180.122,128 158.051,90.668 199.434,109.334 240.816,128 199.434,146.666 158.051,165.332 		"/>
	</g>
	<g>
		<path class="st0" d="M158.052,168.332c-0.835,0-1.653-0.348-2.236-0.999c-0.873-0.975-1.013-2.402-0.348-3.528L176.637,128
			l-21.168-35.805c-0.666-1.126-0.525-2.554,0.348-3.528c0.873-0.974,2.276-1.271,3.468-0.733l82.766,37.332
			c1.075,0.485,1.767,1.555,1.767,2.735s-0.691,2.25-1.767,2.735l-82.766,37.332C158.888,168.245,158.468,168.332,158.052,168.332z
			 M165.457,97.3l17.248,29.173c0.557,0.942,0.557,2.112,0,3.054L165.457,158.7L233.52,128L165.457,97.3z"/>
	</g>
	<g>
		<path class="st0" d="M240,131h-61c-1.657,0-3-1.343-3-3s1.343-3,3-3h61c1.657,0,3,1.343,3,3S241.657,131,240,131z"/>
	</g>
	<g>
		<path class="st0" d="M45,131H26c-1.657,0-3-1.343-3-3s1.343-3,3-3h19c1.657,0,3,1.343,3,3S46.657,131,45,131z"/>
	</g>
	<g>
		<path class="st0" d="M45,104H26c-1.657,0-3-1.343-3-3s1.343-3,3-3h19c1.657,0,3,1.343,3,3S46.657,104,45,104z"/>
	</g>
	<g>
		<path class="st0" d="M45,159H26c-1.657,0-3-1.343-3-3s1.343-3,3-3h19c1.657,0,3,1.343,3,3S46.657,159,45,159z"/>
	</g>
	<g>
		<path class="st0" d="M26,117H15c-1.657,0-3-1.343-3-3s1.343-3,3-3h11c1.657,0,3,1.343,3,3S27.657,117,26,117z"/>
	</g>
	<g>
		<path class="st0" d="M26,146H15c-1.657,0-3-1.343-3-3s1.343-3,3-3h11c1.657,0,3,1.343,3,3S27.657,146,26,146z"/>
	</g>
</g>
</svg>
